<mxfile host="app.diagrams.net" modified="2022-02-25T22:52:56.820Z" agent="5.0 (Windows NT 10.0; Win64; x64) AppleWebKit/537.36 (KHTML, like Gecko) Chrome/97.0.4692.99 Safari/537.36 OPR/83.0.4254.62" etag="8tcbSrd1HZdPX0IWuSvo" version="16.6.3" type="github">
  <diagram id="C5RBs43oDa-KdzZeNtuy" name="Page-1">
    <mxGraphModel dx="1895" dy="1621" grid="1" gridSize="10" guides="1" tooltips="1" connect="1" arrows="1" fold="1" page="1" pageScale="1" pageWidth="827" pageHeight="1169" math="0" shadow="0">
      <root>
        <mxCell id="WIyWlLk6GJQsqaUBKTNV-0" />
        <mxCell id="WIyWlLk6GJQsqaUBKTNV-1" parent="WIyWlLk6GJQsqaUBKTNV-0" />
        <mxCell id="DfqXrMF1ajIBUZLFQvzN-5" value="Stack" style="swimlane;fontStyle=1;align=center;verticalAlign=top;childLayout=stackLayout;horizontal=1;startSize=26;horizontalStack=0;resizeParent=1;resizeParentMax=0;resizeLast=0;collapsible=1;marginBottom=0;" vertex="1" parent="WIyWlLk6GJQsqaUBKTNV-1">
          <mxGeometry x="320" y="40" width="160" height="220" as="geometry" />
        </mxCell>
        <mxCell id="DfqXrMF1ajIBUZLFQvzN-6" value="-head: node&lt;T&gt;&#xa;-count: int" style="text;strokeColor=none;fillColor=none;align=left;verticalAlign=top;spacingLeft=4;spacingRight=4;overflow=hidden;rotatable=0;points=[[0,0.5],[1,0.5]];portConstraint=eastwest;" vertex="1" parent="DfqXrMF1ajIBUZLFQvzN-5">
          <mxGeometry y="26" width="160" height="34" as="geometry" />
        </mxCell>
        <mxCell id="DfqXrMF1ajIBUZLFQvzN-7" value="" style="line;strokeWidth=1;fillColor=none;align=left;verticalAlign=middle;spacingTop=-1;spacingLeft=3;spacingRight=3;rotatable=0;labelPosition=right;points=[];portConstraint=eastwest;" vertex="1" parent="DfqXrMF1ajIBUZLFQvzN-5">
          <mxGeometry y="60" width="160" height="8" as="geometry" />
        </mxCell>
        <mxCell id="DfqXrMF1ajIBUZLFQvzN-8" value="+ StackNodes(): public&#xa;+ push(value: T): void&#xa;+ getHead(): node&lt;T&gt;&#xa;+ setHead(head: node&lt;T&gt;)&#xa;+ getCount(): int&#xa;override&#xa;+ pull(): T&#xa;+ peek() T&#xa;+ count(): int&#xa;+ isEmpty(): boolean" style="text;strokeColor=none;fillColor=none;align=left;verticalAlign=top;spacingLeft=4;spacingRight=4;overflow=hidden;rotatable=0;points=[[0,0.5],[1,0.5]];portConstraint=eastwest;" vertex="1" parent="DfqXrMF1ajIBUZLFQvzN-5">
          <mxGeometry y="68" width="160" height="152" as="geometry" />
        </mxCell>
        <mxCell id="DfqXrMF1ajIBUZLFQvzN-11" value="Extends" style="endArrow=block;endSize=16;endFill=0;html=1;rounded=0;entryX=1;entryY=0.5;entryDx=0;entryDy=0;exitX=0.25;exitY=0;exitDx=0;exitDy=0;" edge="1" parent="WIyWlLk6GJQsqaUBKTNV-1" source="DfqXrMF1ajIBUZLFQvzN-5" target="DfqXrMF1ajIBUZLFQvzN-29">
          <mxGeometry width="160" relative="1" as="geometry">
            <mxPoint x="320" y="80" as="sourcePoint" />
            <mxPoint x="110" y="-21" as="targetPoint" />
            <Array as="points">
              <mxPoint x="360" y="-21" />
            </Array>
          </mxGeometry>
        </mxCell>
        <mxCell id="DfqXrMF1ajIBUZLFQvzN-13" value="Node" style="swimlane;fontStyle=1;align=center;verticalAlign=top;childLayout=stackLayout;horizontal=1;startSize=26;horizontalStack=0;resizeParent=1;resizeParentMax=0;resizeLast=0;collapsible=1;marginBottom=0;" vertex="1" parent="WIyWlLk6GJQsqaUBKTNV-1">
          <mxGeometry x="-67" y="90" width="177" height="170" as="geometry" />
        </mxCell>
        <mxCell id="DfqXrMF1ajIBUZLFQvzN-14" value="- value: T&#xa;- next: node&lt;T&gt;" style="text;strokeColor=none;fillColor=none;align=left;verticalAlign=top;spacingLeft=4;spacingRight=4;overflow=hidden;rotatable=0;points=[[0,0.5],[1,0.5]];portConstraint=eastwest;" vertex="1" parent="DfqXrMF1ajIBUZLFQvzN-13">
          <mxGeometry y="26" width="177" height="44" as="geometry" />
        </mxCell>
        <mxCell id="DfqXrMF1ajIBUZLFQvzN-15" value="" style="line;strokeWidth=1;fillColor=none;align=left;verticalAlign=middle;spacingTop=-1;spacingLeft=3;spacingRight=3;rotatable=0;labelPosition=right;points=[];portConstraint=eastwest;" vertex="1" parent="DfqXrMF1ajIBUZLFQvzN-13">
          <mxGeometry y="70" width="177" height="8" as="geometry" />
        </mxCell>
        <mxCell id="DfqXrMF1ajIBUZLFQvzN-16" value="+ Node():public&#xa;+ Node(value: T): public&#xa;+ getValue(): T&#xa;+ setValue(value: T): void&#xa;+ getNext(): node&lt;T&gt;&#xa;+ setNext(next: node&lt;T&gt;): void" style="text;strokeColor=none;fillColor=none;align=left;verticalAlign=top;spacingLeft=4;spacingRight=4;overflow=hidden;rotatable=0;points=[[0,0.5],[1,0.5]];portConstraint=eastwest;" vertex="1" parent="DfqXrMF1ajIBUZLFQvzN-13">
          <mxGeometry y="78" width="177" height="92" as="geometry" />
        </mxCell>
        <mxCell id="DfqXrMF1ajIBUZLFQvzN-18" value="List" style="swimlane;fontStyle=1;align=center;verticalAlign=top;childLayout=stackLayout;horizontal=1;startSize=26;horizontalStack=0;resizeParent=1;resizeParentMax=0;resizeLast=0;collapsible=1;marginBottom=0;" vertex="1" parent="WIyWlLk6GJQsqaUBKTNV-1">
          <mxGeometry x="330" y="320" width="160" height="86" as="geometry" />
        </mxCell>
        <mxCell id="DfqXrMF1ajIBUZLFQvzN-19" value="+ field: type" style="text;strokeColor=none;fillColor=none;align=left;verticalAlign=top;spacingLeft=4;spacingRight=4;overflow=hidden;rotatable=0;points=[[0,0.5],[1,0.5]];portConstraint=eastwest;" vertex="1" parent="DfqXrMF1ajIBUZLFQvzN-18">
          <mxGeometry y="26" width="160" height="26" as="geometry" />
        </mxCell>
        <mxCell id="DfqXrMF1ajIBUZLFQvzN-20" value="" style="line;strokeWidth=1;fillColor=none;align=left;verticalAlign=middle;spacingTop=-1;spacingLeft=3;spacingRight=3;rotatable=0;labelPosition=right;points=[];portConstraint=eastwest;" vertex="1" parent="DfqXrMF1ajIBUZLFQvzN-18">
          <mxGeometry y="52" width="160" height="8" as="geometry" />
        </mxCell>
        <mxCell id="DfqXrMF1ajIBUZLFQvzN-21" value="+ method(type): type" style="text;strokeColor=none;fillColor=none;align=left;verticalAlign=top;spacingLeft=4;spacingRight=4;overflow=hidden;rotatable=0;points=[[0,0.5],[1,0.5]];portConstraint=eastwest;" vertex="1" parent="DfqXrMF1ajIBUZLFQvzN-18">
          <mxGeometry y="60" width="160" height="26" as="geometry" />
        </mxCell>
        <mxCell id="DfqXrMF1ajIBUZLFQvzN-22" value="1" style="endArrow=open;html=1;endSize=12;startArrow=diamondThin;startSize=14;startFill=1;edgeStyle=orthogonalEdgeStyle;align=left;verticalAlign=bottom;rounded=0;exitX=-0.006;exitY=0.105;exitDx=0;exitDy=0;exitPerimeter=0;entryX=1;entryY=0.182;entryDx=0;entryDy=0;entryPerimeter=0;" edge="1" parent="WIyWlLk6GJQsqaUBKTNV-1" source="DfqXrMF1ajIBUZLFQvzN-8" target="DfqXrMF1ajIBUZLFQvzN-14">
          <mxGeometry x="-1" y="3" relative="1" as="geometry">
            <mxPoint x="140" y="140" as="sourcePoint" />
            <mxPoint x="300" y="140" as="targetPoint" />
          </mxGeometry>
        </mxCell>
        <mxCell id="DfqXrMF1ajIBUZLFQvzN-23" value="1" style="endArrow=open;html=1;endSize=12;startArrow=diamondThin;startSize=14;startFill=1;edgeStyle=orthogonalEdgeStyle;align=left;verticalAlign=bottom;rounded=0;exitX=-0.019;exitY=0.769;exitDx=0;exitDy=0;exitPerimeter=0;entryX=0.429;entryY=1;entryDx=0;entryDy=0;entryPerimeter=0;" edge="1" parent="WIyWlLk6GJQsqaUBKTNV-1" source="DfqXrMF1ajIBUZLFQvzN-19" target="DfqXrMF1ajIBUZLFQvzN-16">
          <mxGeometry x="-1" y="3" relative="1" as="geometry">
            <mxPoint x="319.03999999999996" y="200.00000000000006" as="sourcePoint" />
            <mxPoint x="10" y="270" as="targetPoint" />
          </mxGeometry>
        </mxCell>
        <mxCell id="DfqXrMF1ajIBUZLFQvzN-29" value="&lt;p style=&quot;margin: 0px ; margin-top: 4px ; text-align: center&quot;&gt;&lt;i&gt;&amp;lt;&amp;lt;Interface&amp;gt;&amp;gt;&lt;/i&gt;&lt;br&gt;&lt;b&gt;IStack&lt;/b&gt;&lt;/p&gt;&lt;hr size=&quot;1&quot;&gt;&lt;p style=&quot;margin: 0px ; margin-left: 4px&quot;&gt;N/A&lt;/p&gt;&lt;hr size=&quot;1&quot;&gt;&lt;p style=&quot;margin: 0px ; margin-left: 4px&quot;&gt;&lt;/p&gt;# pull(): T&lt;br style=&quot;padding: 0px ; margin: 0px&quot;&gt;# peek(): T&lt;br style=&quot;padding: 0px ; margin: 0px&quot;&gt;# count(): int&lt;br style=&quot;padding: 0px ; margin: 0px&quot;&gt;# isEmpty(): boolean&amp;nbsp;" style="verticalAlign=top;align=left;overflow=fill;fontSize=12;fontFamily=Helvetica;html=1;" vertex="1" parent="WIyWlLk6GJQsqaUBKTNV-1">
          <mxGeometry x="-80" y="-90" width="190" height="140" as="geometry" />
        </mxCell>
        <mxCell id="DfqXrMF1ajIBUZLFQvzN-31" value="&lt;p style=&quot;margin:0px;margin-top:4px;text-align:center;&quot;&gt;&lt;i&gt;&amp;lt;&amp;lt;Interface&amp;gt;&amp;gt;&lt;/i&gt;&lt;br/&gt;&lt;b&gt;Interface&lt;/b&gt;&lt;/p&gt;&lt;hr size=&quot;1&quot;/&gt;&lt;p style=&quot;margin:0px;margin-left:4px;&quot;&gt;+ field1: Type&lt;br/&gt;+ field2: Type&lt;/p&gt;&lt;hr size=&quot;1&quot;/&gt;&lt;p style=&quot;margin:0px;margin-left:4px;&quot;&gt;+ method1(Type): Type&lt;br/&gt;+ method2(Type, Type): Type&lt;/p&gt;" style="verticalAlign=top;align=left;overflow=fill;fontSize=12;fontFamily=Helvetica;html=1;" vertex="1" parent="WIyWlLk6GJQsqaUBKTNV-1">
          <mxGeometry x="-73" y="406" width="190" height="140" as="geometry" />
        </mxCell>
      </root>
    </mxGraphModel>
  </diagram>
</mxfile>
